<?xml version="1.0" encoding="utf-8"?>
<!-- Generator: Adobe Illustrator 25.0.0, SVG Export Plug-In . SVG Version: 6.00 Build 0)  -->
<svg version="1.1" id="Layer_1" xmlns="http://www.w3.org/2000/svg" xmlns:xlink="http://www.w3.org/1999/xlink" x="0px" y="0px"
	 viewBox="0 0 183 183" style="enable-background:new 0 0 183 183;" xml:space="preserve">
<style type="text/css">
	.st0{clip-path:url(#SVGID_2_);}
</style>
<g id="Layer_1-2">
	<g id="Layer_2_1_">
		<g>
			<defs>
				<rect id="SVGID_1_" width="183" height="183"/>
			</defs>
			<clipPath id="SVGID_2_">
				<use xlink:href="#SVGID_1_"  style="overflow:visible;"/>
			</clipPath>
			<g class="st0">
				<polygon points="153.2,22.5 153.2,255.3 122.2,290.4 18.1,241.5 109.7,255.3 122.2,241.2 122.2,41.6 				"/>
				<polygon points="210.9,-13.1 210.9,255.3 122.2,357.7 6.2,245.3 122.2,305.1 165.2,255.3 165.2,15.1 				"/>
				<polygon points="268.6,-48.6 268.6,255.3 153.6,388.1 128.9,364.2 222.9,255.3 222.9,-20.7 				"/>
				<polygon points="0.2,160 -55.9,230 0.2,230 0.2,230 56.4,230 				"/>
				<polygon points="49,119.7 0.2,58.7 0.2,58.7 -48.6,119.7 -109.8,49 -109.8,241.3 0.2,103.7 0.2,103.7 110.2,241.3 110.2,49 				
					"/>
			</g>
		</g>
	</g>
</g>
</svg>
