<svg id="Layout" xmlns="http://www.w3.org/2000/svg" viewBox="0 0 536.65 498.64"><path d="M147.57,424.05" transform="translate(0 -19)"/><path d="M57.67,322.87" transform="translate(0 -19)"/><polygon points="115.33 71.08 115.33 303.85 146.32 339 250.49 290.13 158.84 303.85 146.32 289.84 146.32 90.18 115.33 71.08"/><polygon points="57.66 35.52 57.66 303.85 146.32 406.3 262.32 293.85 146.32 353.71 103.32 303.85 103.32 63.68 57.66 35.52"/><polygon points="0 0 0 303.85 114.97 436.69 139.62 412.79 45.66 303.85 45.66 27.87 0 0"/><polygon points="127.33 450.98 263.1 303.85 168.58 498.64 127.33 450.98"/><polygon points="421.32 71.08 421.32 303.85 390.32 339 286.16 290.13 377.81 303.85 390.32 289.84 390.32 90.18 421.32 71.08"/><polygon points="478.99 35.52 478.99 303.85 390.32 406.3 274.32 293.85 390.32 353.71 433.32 303.85 433.32 63.68 478.99 35.52"/><polygon points="536.65 0 536.65 303.85 421.68 436.69 397.02 412.79 490.98 303.85 490.98 27.87 536.65 0"/><polygon points="409.32 450.98 273.55 303.85 368.07 498.64 409.32 450.98"/><path d="M147.57,424.05" transform="translate(0 -19)"/><path d="M57.67,322.87" transform="translate(0 -19)"/><path d="M478.46,322.87" transform="translate(0 -19)"/><path d="M478.46,322.87" transform="translate(0 -19)"/><path d="M158.32,99.77" transform="translate(0 -19)"/><path d="M378.33,99.77" transform="translate(0 -19)"/><polygon points="268.33 208.59 212.15 278.59 268.33 278.59 268.33 278.63 324.51 278.63 268.33 208.63 268.33 208.59"/><polygon points="317.12 168.3 268.33 107.3 268.33 107.31 219.54 168.31 158.33 97.58 158.33 289.85 268.33 152.34 268.33 152.34 378.33 289.85 378.33 97.57 317.12 168.3"/></svg>