<?xml version="1.0" encoding="utf-8"?>
<!-- Generator: Adobe Illustrator 25.0.0, SVG Export Plug-In . SVG Version: 6.00 Build 0)  -->
<svg version="1.1" id="Layout" xmlns="http://www.w3.org/2000/svg" xmlns:xlink="http://www.w3.org/1999/xlink" x="0px" y="0px"
	 viewBox="0 0 536.7 498.6" style="enable-background:new 0 0 536.7 498.6;" xml:space="preserve">
<style type="text/css">
	.st0{fill:#FFFFFF;}
</style>
<path class="st0" d="M147.6,405"/>
<path class="st0" d="M57.7,303.9"/>
<polygon class="st0" points="115.3,71.1 115.3,303.9 146.3,339 250.5,290.1 158.8,303.9 146.3,289.8 146.3,90.2 "/>
<polygon class="st0" points="57.7,35.5 57.7,303.9 146.3,406.3 262.3,293.9 146.3,353.7 103.3,303.9 103.3,63.7 "/>
<polygon class="st0" points="0,0 0,303.9 115,436.7 139.6,412.8 45.7,303.9 45.7,27.9 "/>
<polygon class="st0" points="127.3,451 263.1,303.9 168.6,498.6 "/>
<polygon class="st0" points="421.3,71.1 421.3,303.9 390.3,339 286.2,290.1 377.8,303.9 390.3,289.8 390.3,90.2 "/>
<polygon class="st0" points="479,35.5 479,303.9 390.3,406.3 274.3,293.9 390.3,353.7 433.3,303.9 433.3,63.7 "/>
<polygon class="st0" points="536.7,0 536.7,303.9 421.7,436.7 397,412.8 491,303.9 491,27.9 "/>
<polygon class="st0" points="409.3,451 273.5,303.9 368.1,498.6 "/>
<path class="st0" d="M147.6,405"/>
<path class="st0" d="M57.7,303.9"/>
<path class="st0" d="M478.5,303.9"/>
<path class="st0" d="M478.5,303.9"/>
<path class="st0" d="M268.3,278.6h-56.2l56.2-70"/>
<path class="st0" d="M268.3,208.6l56.2,70h-56.2"/>
<path class="st0" d="M158.3,80.8"/>
<path class="st0" d="M268.3,107.3l-48.8,61l0,0l-61.2-70.7v192.3l110-137.5"/>
<path class="st0" d="M378.3,80.8"/>
<path class="st0" d="M268.3,152.3l110,137.5V97.6l-61.2,70.7l0,0l-48.8-61"/>
</svg>
