<svg id="Wirespeak" xmlns="http://www.w3.org/2000/svg" viewBox="0 0 1165.33 496.9"><defs><style>.cls-1{isolation:isolate;}</style></defs><g id="Outline" class="cls-1"><path id="I" d="M556.4,295.09V107.22h30V295h-30Z" transform="translate(-4.3 -0.7)"/><path id="R" d="M598.87,107.22h47.68c7.56,0,13.45,2,17.61,6.2s7,10,8.39,17.46,2.19,17.08,2.19,28.71q0,16-3.4,24.94A20.93,20.93,0,0,1,659.4,197a14.65,14.65,0,0,1,10.2,8.54q3.18,6.79,3.17,18.36l-.37,71H642.09V221.48c0-5.21-.83-8.61-2.49-10s-4.76-2.19-9.22-2.19v85.7H598.94V107.22Zm39,69.6c4.31,0,6.5-5.67,6.5-17.08a81.74,81.74,0,0,0-.53-11.18,9.78,9.78,0,0,0-2-5.14,5.6,5.6,0,0,0-4.16-1.43h-7.25v34.76h7.4Z" transform="translate(-4.3 -0.7)"/><path id="E" d="M684.94,295.09V107.22h62.12V143.5H716.53V180h29.24v35.44H716.53v43.07H749V295H684.94Z" transform="translate(-4.3 -0.7)"/><path id="S" d="M765.65,284.13q-9.4-12.69-9.37-40.88V224.88h30.53v23.43c0,9.29,2.49,14,7.4,14,2.8,0,4.69-1,5.75-3s1.66-5.29,1.66-10a53.45,53.45,0,0,0-1.82-15.19,35.07,35.07,0,0,0-4.61-10.05c-1.88-2.72-5.21-6.88-10.05-12.55l-13.37-16.24c-10.35-12.25-15.49-25.77-15.49-40.66,0-16,3-28.26,9.14-36.65s15-12.54,26.6-12.54c14,0,24,4.45,30.15,13.45s9.22,23,9.22,42.09H799.8l-.15-12.92a9.31,9.31,0,0,0-1.73-5.9,5.79,5.79,0,0,0-4.77-2.19,6.44,6.44,0,0,0-5.44,2.42A10.62,10.62,0,0,0,785.9,149c0,6.12,2.87,12.47,8.69,19.05l18.06,21a122.86,122.86,0,0,1,10.5,14.14,58.3,58.3,0,0,1,6.65,15.71,81.61,81.61,0,0,1,2.5,21.54c0,18.51-2.8,32.57-8.39,42.09S809.1,296.9,796.18,296.9C782.05,296.82,771.92,292.59,765.65,284.13Z" transform="translate(-4.3 -0.7)"/><path id="P" d="M842.58,107.22h40.95q18.6,0,26.53,14.51T918,164.28q0,28-7,42.17c-4.68,9.44-13.14,14.2-25.23,14.2H873V295H842.5V107.22Zm32.26,79.65c3.71,0,6.5-.83,8.24-2.49a12.56,12.56,0,0,0,3.4-7.18,85.1,85.1,0,0,0,.83-13.45c0-7.86-.75-13.53-2.19-17.08s-4.31-5.21-8.69-5.21H873V187l1.81-.08Z" transform="translate(-4.3 -0.7)"/><path id="E-2" data-name="E" d="M927.74,295.09V107.22h62.12V143.5H959.33V180h29.24v35.44H959.33v43.07h32.49V295H927.74v.08Z" transform="translate(-4.3 -0.7)"/><path id="A" d="M998,295.09l15-187.79h52.52l14.81,187.79h-29.39l-2.19-30.38H1030l-1.81,30.38Zm34.31-60.38h14.05l-6.87-95.52h-1.44Z" transform="translate(-4.3 -0.7)"/><path id="K" d="M1089.68,295.09V107.22h30.68v75.19l14.44-75.19H1166l-17.31,85.93L1169.63,295h-32.11l-17-91v91h-30.83Z" transform="translate(-4.3 -0.7)"/></g><g id="Icon"><path d="M151.4,404.3" transform="translate(-4.3 -0.7)"/><path d="M61.8,303.5" transform="translate(-4.3 -0.7)"/><polygon points="114.9 70.8 114.9 302.8 145.8 337.8 249.6 289.1 158.2 302.8 145.8 288.8 145.8 89.9 114.9 70.8"/><polygon points="57.5 35.3 57.5 302.8 145.8 404.9 261.4 292.9 145.8 352.5 102.9 302.8 102.9 63.4 57.5 35.3"/><polygon points="0 0 0 302.8 114.6 435.2 139.1 411.4 45.5 302.8 45.5 27.8 0 0"/><polygon points="126.8 449.4 262.2 302.8 168 496.9 126.8 449.4"/><polygon points="419.8 70.8 419.8 302.8 388.9 337.8 285.2 289.1 376.5 302.8 388.9 288.8 388.9 89.9 419.8 70.8"/><polygon points="477.3 35.3 477.3 302.8 388.9 404.9 273.3 292.9 388.9 352.5 431.8 302.8 431.8 63.4 477.3 35.3"/><polygon points="534.8 0 534.8 302.8 420.2 435.2 395.6 411.4 489.3 302.8 489.3 27.8 534.8 0"/><polygon points="407.9 449.4 272.5 302.8 366.8 496.9 407.9 449.4"/><path d="M151.4,404.3" transform="translate(-4.3 -0.7)"/><path d="M61.8,303.5" transform="translate(-4.3 -0.7)"/><path d="M481.1,303.5" transform="translate(-4.3 -0.7)"/><path d="M481.1,303.5" transform="translate(-4.3 -0.7)"/><path d="M162,81.2" transform="translate(-4.3 -0.7)"/><path d="M381.3,81.2" transform="translate(-4.3 -0.7)"/><polygon points="267.3 207.9 211.4 277.6 267.3 277.6 267.3 277.6 323.4 277.6 267.3 207.9"/><polygon points="316 167.7 267.3 106.9 267.3 106.9 218.7 167.7 157.7 97.2 157.7 288.9 267.3 151.7 267.3 151.7 377 288.9 377 97.2 316 167.7"/></g></svg>